# xmcd
#
# Track frame offsets:
#	150
#	18213
#	34685
#	50882
#	67454
#	85560
#	99317
#	116388
#	134256
#	149215
#	168497
#	187763
#	205621
#	222554
#	240355
#	257873
#	272758
#	292160
#	313211
#	331639
#
# Disc length: 4639 seconds
#
# Revision: 1
# Processed by: cddbd v1.5.2PL0 Copyright (c) Steve Scherf et al.
# Submitted via: audiograbber 1.83.01
#
DISCID=2f121d14
DTITLE=Various Artist - Nu Urban Traxx 073
DYEAR=2005
DGENRE=Hip-Hop
TTITLE0=Fat Joe - So Much More
TTITLE1=R. Kelly - In The Kitchen
TTITLE2=Young Gunz - Set It Off
TTITLE3=Baby Bash Ft Akon - Baby I'm Back
TTITLE4=Pretty Ricky - Grind With Me
TTITLE5=Ying Yang Twins - Wait (The Whisper Song)
TTITLE6=Styles P - I'm Black
TTITLE7=Snoop Dogg Ft Justin Timberlake and Charlie Wilson - Signs
TTITLE8=Memphis Bleek - Like That
TTITLE9=C-Murder Ft B.G. - Ya'll Heard Of Me
TTITLE10=Syleena Johnson Ft R. Kelly - Hypnotic
TTITLE11=Mannie Fresh - Conversation
TTITLE12=Lyfe Jennings - Must Be Nice
TTITLE13=Jennifer Lopez Ft Fat Joe - Hold Me Down
TTITLE14=Jacki-O Ft Jazze Pha - Break You Off
TTITLE15=Will Smith - Switch
TTITLE16=Gerald Levert - So What (If You Got A Baby)
TTITLE17=Tru - Where U From
TTITLE18=Brian Mcknight - Everytime You Go Away
TTITLE19=Mashonda - Back Of Da Club
EXTD=
EXTT0=
EXTT1=
EXTT2=
EXTT3=
EXTT4=
EXTT5=
EXTT6=
EXTT7=
EXTT8=
EXTT9=
EXTT10=
EXTT11=
EXTT12=
EXTT13=
EXTT14=
EXTT15=
EXTT16=
EXTT17=
EXTT18=
EXTT19=
PLAYORDER=
